<svg width="253" height="34" viewBox="0 0 253 34" fill="none" xmlns="http://www.w3.org/2000/svg">
<path d="M11.52 29.48C9.28 29.48 7.13333 29.1867 5.08 28.6C3.02667 27.9867 1.37333 27.2 0.12 26.24L2.32 21.36C3.52 22.2133 4.93333 22.92 6.56 23.48C8.21333 24.0133 9.88 24.28 11.56 24.28C12.84 24.28 13.8667 24.16 14.64 23.92C15.44 23.6533 16.0267 23.2933 16.4 22.84C16.7733 22.3867 16.96 21.8667 16.96 21.28C16.96 20.5333 16.6667 19.9467 16.08 19.52C15.4933 19.0667 14.72 18.7067 13.76 18.44C12.8 18.1467 11.7333 17.88 10.56 17.64C9.41333 17.3733 8.25333 17.0533 7.08 16.68C5.93333 16.3067 4.88 15.8267 3.92 15.24C2.96 14.6533 2.17333 13.88 1.56 12.92C0.973333 11.96 0.68 10.7333 0.68 9.24C0.68 7.64 1.10667 6.18667 1.96 4.88C2.84 3.54666 4.14667 2.49333 5.88 1.72C7.64 0.919999 9.84 0.52 12.48 0.52C14.24 0.52 15.9733 0.733332 17.68 1.16C19.3867 1.56 20.8933 2.17333 22.2 3L20.2 7.92C18.8933 7.17333 17.5867 6.62667 16.28 6.28C14.9733 5.90667 13.6933 5.72 12.44 5.72C11.1867 5.72 10.16 5.86667 9.36 6.16C8.56 6.45333 7.98667 6.84 7.64 7.32C7.29333 7.77333 7.12 8.30667 7.12 8.92C7.12 9.64 7.41333 10.2267 8 10.68C8.58667 11.1067 9.36 11.4533 10.32 11.72C11.28 11.9867 12.3333 12.2533 13.48 12.52C14.6533 12.7867 15.8133 13.0933 16.96 13.44C18.1333 13.7867 19.2 14.2533 20.16 14.84C21.12 15.4267 21.8933 16.2 22.48 17.16C23.0933 18.12 23.4 19.3333 23.4 20.8C23.4 22.3733 22.96 23.8133 22.08 25.12C21.2 26.4267 19.88 27.48 18.12 28.28C16.3867 29.08 14.1867 29.48 11.52 29.48ZM33.2372 29V6.28H24.2772V0.999998H48.6772V6.28H39.7172V29H33.2372ZM52.1638 29V0.999998H64.2838C66.7904 0.999998 68.9504 1.41333 70.7638 2.24C72.5771 3.04 73.9771 4.2 74.9638 5.72C75.9504 7.24 76.4438 9.05333 76.4438 11.16C76.4438 13.24 75.9504 15.04 74.9638 16.56C73.9771 18.0533 72.5771 19.2 70.7638 20C68.9504 20.8 66.7904 21.2 64.2838 21.2H55.7638L58.6438 18.36V29H52.1638ZM69.9637 29L62.9638 18.84H69.8838L76.9638 29H69.9637ZM58.6438 19.08L55.7638 16.04H63.9238C65.9238 16.04 67.4171 15.6133 68.4038 14.76C69.3904 13.88 69.8838 12.68 69.8838 11.16C69.8838 9.61333 69.3904 8.41333 68.4038 7.56C67.4171 6.70667 65.9238 6.28 63.9238 6.28H55.7638L58.6438 3.2V19.08ZM87.5378 12.28H101.018V17.32H87.5378V12.28ZM88.0178 23.8H103.258V29H81.5778V0.999998H102.738V6.2H88.0178V23.8ZM104.734 29L117.214 0.999998H123.614L136.134 29H129.334L119.094 4.28H121.654L111.374 29H104.734ZM110.974 23L112.694 18.08H127.094L128.854 23H110.974ZM139.039 29V0.999998H144.399L156.319 20.76H153.479L165.199 0.999998H170.519L170.599 29H164.519L164.479 10.32H165.599L156.239 26.04H153.319L143.759 10.32H145.119V29H139.039ZM177.242 29V0.999998H183.722V29H177.242ZM187.167 29L199.207 12.4V17.12L187.687 0.999998H195.047L203.007 12.24L199.927 12.28L207.767 0.999998H214.807L203.367 16.84V12.2L215.487 29H208.007L199.767 17.12H202.727L194.607 29H187.167ZM234.73 29.16C233.783 29.16 232.97 28.96 232.29 28.56C231.61 28.16 231.09 27.5533 230.73 26.74C230.37 25.9133 230.19 24.8733 230.19 23.62C230.19 22.3533 230.376 21.3133 230.75 20.5C231.136 19.6867 231.67 19.08 232.35 18.68C233.03 18.28 233.823 18.08 234.73 18.08C235.743 18.08 236.65 18.3067 237.45 18.76C238.263 19.2133 238.903 19.8533 239.37 20.68C239.85 21.5067 240.09 22.4867 240.09 23.62C240.09 24.74 239.85 25.7133 239.37 26.54C238.903 27.3667 238.263 28.0133 237.45 28.48C236.65 28.9333 235.743 29.16 234.73 29.16ZM228.37 29V14.16H231.49V20.42L231.29 23.6L231.35 26.8V29H228.37ZM234.19 26.6C234.71 26.6 235.17 26.48 235.57 26.24C235.983 26 236.31 25.66 236.55 25.22C236.803 24.7667 236.93 24.2333 236.93 23.62C236.93 22.9933 236.803 22.46 236.55 22.02C236.31 21.58 235.983 21.24 235.57 21C235.17 20.76 234.71 20.64 234.19 20.64C233.67 20.64 233.203 20.76 232.79 21C232.376 21.24 232.05 21.58 231.81 22.02C231.57 22.46 231.45 22.9933 231.45 23.62C231.45 24.2333 231.57 24.7667 231.81 25.22C232.05 25.66 232.376 26 232.79 26.24C233.203 26.48 233.67 26.6 234.19 26.6ZM243.245 33.04C242.685 33.04 242.132 32.9533 241.585 32.78C241.039 32.6067 240.592 32.3667 240.245 32.06L241.385 29.84C241.625 30.0533 241.899 30.22 242.205 30.34C242.525 30.46 242.839 30.52 243.145 30.52C243.585 30.52 243.932 30.4133 244.185 30.2C244.452 30 244.692 29.66 244.905 29.18L245.465 27.86L245.705 27.52L249.565 18.24H252.565L247.705 29.66C247.359 30.5267 246.959 31.2067 246.505 31.7C246.065 32.1933 245.572 32.54 245.025 32.74C244.492 32.94 243.899 33.04 243.245 33.04ZM245.085 29.42L240.285 18.24H243.505L247.225 27.24L245.085 29.42Z" fill="white"/>
</svg>
